# xmcd CD database file
#
# Track frame offsets:
#	150
#	9032
#	38401
#	50989
#	62642
#	72583
#	85215
#	95949
#	107290
#	114403
#
# Disc length: 1616 seconds
#
# Revision: 0
# Processed by: cddbd v1.5.2PL0 Copyright (c) Steve Scherf et al.
# Submitted via: CDex 1.70beta2
#
DISCID=7c064e0a
DTITLE=Boss, Wilf and Doug Lewis - Cdn. - The Country Million - Airs
DYEAR=1900
DGENRE=Country
TTITLE0=Daddy Sang Bass
TTITLE1=Old Doc Brown
TTITLE2=Orange Blossom Special
TTITLE3=Our Divorce came through Today
TTITLE4=Lonely Tears
TTITLE5=Bury the Bottle with Me
TTITLE6=My Pretty One
TTITLE7=Beautiful Woods of Maine
TTITLE8=Buckaroo
TTITLE9=A Picture of Nature
EXTD=
EXTT0=
EXTT1=
EXTT2=
EXTT3=
EXTT4=
EXTT5=
EXTT6=
EXTT7=
EXTT8=
EXTT9=
PLAYORDER=
